<svg 
    xmlns="http://www.w3.org/2000/svg" 
    xmlns:xlink="http://www.w3.org/1999/xlink" 
    version="1.1" 
    x="0px" 
    y="0px" 
    viewBox="0 0 100 125" 
    enable-background="new 0 0 100 100" 
    xml:space="preserve">
    <path 
        d="M72.765,29.147c1.034,0.916,2.613,0.82,3.529-0.213c0.916-1.033,0.82-2.613-0.213-3.529L51.392,3.53  c-0.951-0.842-2.383-0.838-3.328,0.011L7.676,39.799c-1.027,0.922-1.112,2.503-0.19,3.53c0.494,0.55,1.176,0.83,1.861,0.83  c0.595,0,1.191-0.211,1.669-0.64L49.744,8.75L72.765,29.147z M92.313,39.789l-8.907-7.893c-1.032-0.916-2.613-0.82-3.529,0.213  c-0.916,1.034-0.82,2.614,0.213,3.529l8.907,7.893c0.476,0.422,1.067,0.629,1.657,0.629c0.69,0,1.378-0.285,1.872-0.842  C93.441,42.284,93.346,40.704,92.313,39.789z M80.501,40.483c-1.381,0-2.5,1.119-2.5,2.5v49.116H62.774V63.272  c0-1.381-1.119-2.5-2.5-2.5H39.726c-1.381,0-2.5,1.119-2.5,2.5v28.827H21.999V42.983c0-1.381-1.119-2.5-2.5-2.5s-2.5,1.119-2.5,2.5  v51.616c0,1.381,1.119,2.5,2.5,2.5h61.002c1.381,0,2.5-1.119,2.5-2.5V42.983C83.001,41.602,81.882,40.483,80.501,40.483z   M57.774,92.099H42.226V65.772h15.549V92.099z"/>
    <!-- <text 
        x="0" y="115" fill="#000000" font-size="5px" font-weight="bold" font-family="'Helvetica Neue', Helvetica, Arial-Unicode, Arial, Sans-serif">Created by myladkings
    </text>
    <text 
        x="0" y="120" fill="#000000" font-size="5px" font-weight="bold" font-family="'Helvetica Neue', Helvetica, Arial-Unicode, Arial, Sans-serif">from the Noun Project
    </text> -->
</svg>