<svg 
    xmlns="http://www.w3.org/2000/svg"
    xmlns:xlink="http://www.w3.org/1999/xlink"
    version="1.1"
    x="0px"
    y="0px"
    viewBox="0 0 100 125"
    enable-background="new 0 0 100 100" 
    xml:space="preserve">
    <path 
        d="M87.5,18.125c1.381,0,2.5-1.119,2.5-2.5V9.916c0-0.836-0.417-1.617-1.112-2.08s-1.577-0.547-2.348-0.229L50,22.803  L13.46,7.607c-0.769-0.318-1.651-0.234-2.348,0.229C10.417,8.299,10,9.08,10,9.916v64.572c0,1.01,0.607,1.92,1.54,2.309l37.5,15.596  c0.054,0.021,0.11,0.031,0.164,0.049c0.053,0.018,0.104,0.033,0.157,0.049c0.21,0.055,0.424,0.094,0.639,0.094  s0.429-0.039,0.639-0.094c0.054-0.016,0.104-0.031,0.157-0.049c0.054-0.018,0.11-0.027,0.164-0.049l37.5-15.596  c0.933-0.389,1.54-1.299,1.54-2.309v-50.99c0-1.381-1.119-2.5-2.5-2.5s-2.5,1.119-2.5,2.5V72.82L52.5,86.336V27.18L85,13.662v1.963  C85,17.006,86.119,18.125,87.5,18.125z M47.5,86.336L15,72.82V13.662L47.5,27.18V86.336z M79.892,30.375  c-0.528-1.275-1.995-1.885-3.267-1.35l-17.666,7.332c-1.275,0.529-1.88,1.99-1.351,3.266c0.398,0.963,1.329,1.543,2.31,1.543  c0.319,0,0.645-0.061,0.957-0.191l17.666-7.332C79.816,33.113,80.421,31.65,79.892,30.375z M79.892,40.375  c-0.528-1.275-1.995-1.885-3.267-1.35l-17.666,7.332c-1.275,0.529-1.88,1.99-1.351,3.266c0.398,0.963,1.329,1.543,2.31,1.543  c0.319,0,0.645-0.061,0.957-0.191l17.666-7.332C79.816,43.113,80.421,41.65,79.892,40.375z M79.892,50.375  c-0.528-1.275-1.995-1.883-3.267-1.35l-17.666,7.332c-1.275,0.529-1.88,1.99-1.351,3.266c0.398,0.963,1.329,1.543,2.31,1.543  c0.319,0,0.645-0.061,0.957-0.191l17.666-7.332C79.816,53.113,80.421,51.65,79.892,50.375z M76.625,59.025l-17.666,7.332  c-1.275,0.529-1.88,1.99-1.351,3.266c0.398,0.963,1.329,1.543,2.31,1.543c0.319,0,0.645-0.061,0.957-0.191l17.666-7.332  c1.275-0.529,1.88-1.992,1.351-3.268C79.363,59.1,77.896,58.49,76.625,59.025z M21.459,33.643l17.666,7.332  c0.313,0.131,0.638,0.191,0.957,0.191c0.98,0,1.911-0.58,2.31-1.543c0.529-1.275-0.075-2.736-1.351-3.266l-17.666-7.332  c-1.276-0.535-2.739,0.074-3.267,1.35C19.579,31.65,20.184,33.113,21.459,33.643z M21.459,43.643l17.666,7.332  c0.313,0.131,0.638,0.191,0.957,0.191c0.98,0,1.911-0.58,2.31-1.543c0.529-1.275-0.075-2.736-1.351-3.266l-17.666-7.332  c-1.276-0.535-2.739,0.074-3.267,1.35C19.579,41.65,20.184,43.113,21.459,43.643z M21.459,53.643l17.666,7.332  c0.313,0.131,0.638,0.191,0.957,0.191c0.98,0,1.911-0.58,2.31-1.543c0.529-1.275-0.075-2.736-1.351-3.266l-17.666-7.332  c-1.276-0.533-2.739,0.074-3.267,1.35C19.579,51.65,20.184,53.113,21.459,53.643z M21.459,63.643l17.666,7.332  c0.313,0.131,0.638,0.191,0.957,0.191c0.98,0,1.911-0.58,2.31-1.543c0.529-1.275-0.075-2.736-1.351-3.266l-17.666-7.332  c-1.276-0.535-2.739,0.074-3.267,1.35C19.579,61.65,20.184,63.113,21.459,63.643z"/>
    <!-- <text 
        x="0" y="115" fill="#000000" font-size="5px" font-weight="bold" font-family="'Helvetica Neue', Helvetica, Arial-Unicode, Arial, Sans-serif">Created by myladkings
    </text>
    <text 
        x="0" y="120" fill="#000000" font-size="5px" font-weight="bold" font-family="'Helvetica Neue', Helvetica, Arial-Unicode, Arial, Sans-serif">from the Noun Project
    </text> -->
</svg>