<svg 
    xmlns="http://www.w3.org/2000/svg" 
    xmlns:xlink="http://www.w3.org/1999/xlink" 
    version="1.1" 
    x="0px" 
    y="0px" 
    viewBox="0 0 100 125" 
    enable-background="new 0 0 100 100" 
    xml:space="preserve">
    <path 
        d="M92.313,41.097L51.392,4.838C50.44,3.996,49.009,4,48.063,4.849L7.676,41.107c-1.027,0.922-1.112,2.503-0.19,3.53  c0.923,1.027,2.502,1.113,3.53,0.19l38.729-34.769l39.252,34.78c0.477,0.422,1.067,0.629,1.657,0.629  c0.69,0,1.378-0.285,1.872-0.842C93.441,43.592,93.346,42.012,92.313,41.097z M81.619,41.822c-1.373-0.138-2.604,0.853-2.748,2.225  l-4.919,46.745H61.326V72.5c0-1.381-1.119-2.5-2.5-2.5s-2.5,1.119-2.5,2.5v18.291H43.674V62.878h12.652v2.289  c0,1.381,1.119,2.5,2.5,2.5s2.5-1.119,2.5-2.5v-4.789c0-1.381-1.119-2.5-2.5-2.5H41.174c-1.381,0-2.5,1.119-2.5,2.5v30.413H26.048  l-4.919-46.745c-0.144-1.372-1.372-2.364-2.748-2.225c-1.373,0.145-2.369,1.375-2.225,2.748l5.154,48.983  c0.134,1.272,1.207,2.238,2.486,2.238h52.406c1.279,0,2.353-0.966,2.486-2.238l5.154-48.983  C83.988,43.197,82.992,41.966,81.619,41.822z"/>
    <!-- <text x="0" y="115" fill="#000000" font-size="5px" font-weight="bold" font-family="'Helvetica Neue', Helvetica, Arial-Unicode, Arial, Sans-serif">Created by myladkings
    </text>
    <text x="0" y="120" fill="#000000" font-size="5px" font-weight="bold" font-family="'Helvetica Neue', Helvetica, Arial-Unicode, Arial, Sans-serif">from the Noun Project
    </text> -->
</svg>