<svg 
    xmlns="http://www.w3.org/2000/svg" 
    xmlns:xlink="http://www.w3.org/1999/xlink" 
    version="1.1" 
    x="0px" 
    y="0px" 
    viewBox="0 0 100 125" 
    enable-background="new 0 0 100 100" 
    xml:space="preserve">
    <path 
        d="M31.813,95.815c-0.463,0-0.926-0.144-1.321-0.434c-0.863-0.634-1.154-1.793-0.692-2.76l16.524-34.599l-21.566-8.47  c-0.686-0.27-1.194-0.86-1.359-1.578s0.035-1.472,0.535-2.013L61.84,4.902c0.75-0.812,1.98-0.951,2.892-0.333  c0.914,0.62,1.237,1.814,0.761,2.81L49.404,40.991l25.889,10.907c0.698,0.295,1.199,0.922,1.331,1.668  c0.132,0.745-0.123,1.507-0.678,2.022l-2.743,2.551c-0.903,0.841-2.314,0.787-3.153-0.114c-0.839-0.902-0.788-2.314,0.114-3.153  l0.216-0.201L45.516,44.195c-0.563-0.237-1.003-0.694-1.22-1.265s-0.19-1.205,0.073-1.755l10.704-22.364L29.426,46.593l20.76,8.152  c0.577,0.227,1.033,0.683,1.261,1.259c0.227,0.576,0.204,1.221-0.063,1.78L38.88,83.966l26.098-24.271  c0.904-0.839,2.315-0.787,3.153,0.114c0.839,0.902,0.788,2.314-0.114,3.153L33.333,95.218  C32.907,95.614,32.361,95.815,31.813,95.815z"
    />
    <!-- <text 
        x="0" y="115" fill="#000000" font-size="5px" font-weight="bold" font-family="'Helvetica Neue', Helvetica, Arial-Unicode, Arial, Sans-serif">Created by myladkings
    </text>
    <text 
        x="0" y="120" fill="#000000" font-size="5px" font-weight="bold" font-family="'Helvetica Neue', Helvetica, Arial-Unicode, Arial, Sans-serif">from the Noun Project
    </text> -->
</svg>